<svg xmlns="http://www.w3.org/2000/svg" viewBox="0 0 256 256"><defs><linearGradient id="b" x1=".843" y1=".135" x2=".206" y2=".886" gradientUnits="objectBoundingBox"><stop offset="0" stop-color="#b6509e"/><stop offset="1" stop-color="#2ebac6"/></linearGradient><clipPath id="a"><path d="M0 0h256v256H0z"/></clipPath></defs><g clip-path="url(#a)"><path d="M128 256a129.015 129.015 0 01-25.8-2.6 127.323 127.323 0 01-45.77-19.261 128.365 128.365 0 01-46.375-56.316A127.344 127.344 0 012.6 153.8a129.25 129.25 0 010-51.593 127.311 127.311 0 0119.26-45.77 128.371 128.371 0 0156.317-46.378A127.339 127.339 0 01102.2 2.6a129.268 129.268 0 0151.593 0 127.31 127.31 0 0145.77 19.26 128.37 128.37 0 0146.375 56.317A127.338 127.338 0 01253.4 102.2a129.247 129.247 0 010 51.593 127.307 127.307 0 01-19.26 45.77 128.374 128.374 0 01-56.316 46.374A127.428 127.428 0 01153.8 253.4 129.015 129.015 0 01128 256zm0-242.287a115.127 115.127 0 00-23.032 2.322A113.664 113.664 0 0064.1 33.233a114.618 114.618 0 00-41.4 50.282 113.7 113.7 0 00-6.659 21.452 115.4 115.4 0 000 46.065 113.67 113.67 0 0017.2 40.866 114.629 114.629 0 0050.282 41.407 113.736 113.736 0 0021.453 6.658 115.366 115.366 0 0046.065 0 113.612 113.612 0 0040.866-17.2 114.615 114.615 0 0041.393-50.278 113.723 113.723 0 006.659-21.452 115.4 115.4 0 000-46.065 113.662 113.662 0 00-17.2-40.865A114.62 114.62 0 00172.485 22.7a113.683 113.683 0 00-21.453-6.659A115.127 115.127 0 00128 13.714z" fill="url(#b)"/><path d="M127.982 29.714l24.507 24.513-61.5 61.522-24.513-24.513zM66.589 164.856l24.507 24.513 98.285-98.285-24.507-24.513zm36.857 36.858l24.53 24.571L226.261 128l-24.507-24.514zm-24.712-73.715l-24.513-24.513-24.507 24.513 24.507 24.507z" fill="#f0b90b"/></g></svg>