<svg xmlns="http://www.w3.org/2000/svg" viewBox="0 0 256 256"><linearGradient id="b" gradientUnits="objectBoundingBox" x1=".843" x2=".206" y1=".135" y2=".886"><stop offset="0" stop-color="#b6509e"/><stop offset="1" stop-color="#2ebac6"/></linearGradient><radialGradient id="c" cx=".197" cy=".16" gradientUnits="objectBoundingBox" r=".555"><stop offset="0" stop-color="#7ff"/><stop offset=".394" stop-color="#87e4ff"/><stop offset=".861" stop-color="#6273ff"/><stop offset="1" stop-color="#9468ff"/></radialGradient><clipPath id="d"><circle cx="91.503" cy="91.503" r="91.503" transform="rotate(-4.226 182.786 6.744)"/></clipPath><radialGradient id="e" cx=".502" cy=".478" gradientTransform="matrix(.819 -.106 .101 1.15 .031 -.033)" gradientUnits="objectBoundingBox" r=".554"><stop offset=".497" stop-color="#0ff"/><stop offset="1" stop-color="#00f4ff" stop-opacity="0"/></radialGradient><linearGradient id="f" gradientUnits="objectBoundingBox" x1=".636" x2=".997" y1=".506" y2=".764"><stop offset="0" stop-color="#5a27ed"/><stop offset="1" stop-color="#ab37f4"/></linearGradient><linearGradient id="g" gradientUnits="objectBoundingBox" x1=".039" x2=".877" y1=".245" y2=".957"><stop offset="0" stop-color="#7618f4"/><stop offset=".504" stop-color="#575ff8"/><stop offset="1" stop-color="#09ffff"/></linearGradient><linearGradient id="h" gradientUnits="objectBoundingBox" x1=".17" x2=".918" y1=".498" y2=".744"><stop offset="0" stop-color="#7f4cff"/><stop offset="1" stop-color="#3095ff"/></linearGradient><linearGradient id="i" gradientUnits="objectBoundingBox" x1=".14" x2=".791" y1=".056" y2="1.241"><stop offset="0" stop-color="#7f52ff"/><stop offset="1" stop-color="#3096ff"/></linearGradient><linearGradient id="j" gradientUnits="objectBoundingBox" x1=".81" x2=".575" y1=".81" y2=".511"><stop offset="0" stop-color="#fff"/><stop offset=".157" stop-color="#fbffff"/><stop offset=".319" stop-color="#efffff"/><stop offset=".483" stop-color="#daffff"/><stop offset=".648" stop-color="#bdfffe"/><stop offset=".814" stop-color="#98fffe"/><stop offset=".979" stop-color="#6bfffd"/><stop offset="1" stop-color="#65fffd"/></linearGradient><linearGradient id="k" gradientUnits="objectBoundingBox" x1=".126" x2=".692" y1=".992" y2="-.06"><stop offset="0" stop-color="#fff" stop-opacity="0"/><stop offset=".515" stop-color="#e6ffff"/><stop offset="1" stop-color="#ceffff" stop-opacity=".502"/></linearGradient><linearGradient id="l" gradientUnits="objectBoundingBox" x2="1" y1=".5" y2=".5"><stop offset="0" stop-color="#fff"/><stop offset=".867" stop-color="#fff" stop-opacity=".306"/><stop offset="1" stop-color="#fff" stop-opacity=".2"/></linearGradient><clipPath id="a"><path d="M0 0h256v256H0z"/></clipPath><g clip-path="url(#a)"><path d="M128 256a128.976 128.976 0 01-25.8-2.6 127.309 127.309 0 01-45.77-19.261 128.366 128.366 0 01-46.375-56.315A127.357 127.357 0 012.6 153.8a129.251 129.251 0 010-51.593 127.31 127.31 0 0119.26-45.77 128.372 128.372 0 0156.317-46.378A127.33 127.33 0 01102.2 2.6a129.244 129.244 0 0151.593 0 127.308 127.308 0 0145.77 19.26 128.367 128.367 0 0146.375 56.316A127.343 127.343 0 01253.4 102.2a129.248 129.248 0 010 51.593 127.3 127.3 0 01-19.26 45.77 128.382 128.382 0 01-56.316 46.375A127.4 127.4 0 01153.8 253.4 128.977 128.977 0 01128 256zm0-242.287a115.145 115.145 0 00-23.033 2.322A113.657 113.657 0 0064.1 33.232a114.622 114.622 0 00-41.4 50.283 113.7 113.7 0 00-6.659 21.452 115.4 115.4 0 000 46.065 113.66 113.66 0 0017.2 40.866 114.627 114.627 0 0050.282 41.407 113.75 113.75 0 0021.453 6.658 115.381 115.381 0 0046.065 0 113.609 113.609 0 0040.866-17.2 114.622 114.622 0 0041.393-50.278 113.741 113.741 0 006.659-21.453 115.4 115.4 0 000-46.065 113.662 113.662 0 00-17.2-40.865A114.619 114.619 0 00172.485 22.7a113.74 113.74 0 00-21.453-6.659A115.145 115.145 0 00128 13.714z" fill="url(#b)"/><path d="M422.476 505.333a91.5 91.5 0 11-91.5-91.5 91.5 91.5 0 0191.5 91.5z" fill="url(#c)" transform="translate(-202.969 -377.35)"/><g clip-path="url(#d)" transform="translate(30 30)"><path d="M410.351 537.063c12.606 12.237 22.206 27.531 24.149 45.837 4.281 40.3-27.067 76.669-70.018 81.232s-81.237-24.41-85.518-64.713 20.008-37.571 62.954-42.134c23.435-2.485 60.799-27.63 68.433-20.222z" fill="url(#e)" transform="translate(-252.308 -467.77)"/></g><path d="M413.791 514.413l-.091-1.18h-14.986L413.8 500.34l-.025-.62a49.871 49.871 0 00-7.69-24.894l-.363-.686h-80.928c-7.644 0-22.494 2.365-33.4 14.557-4.755 5.315-14.94 21.274-14.809 39.174.076 10.075 1.054 17.905 4.856 26.669a81.274 81.274 0 006.439 12.1c7.679 13.776 16.05 23.366 24.879 28.509a36.716 36.716 0 0019.595 4.941h45.87l.272-.151c.151-.076 15.157-7.921 28.711-16.156l.393-.237.151-.424c.045-.131.1-.257.141-.378a7.84 7.84 0 00.3-.8c1.669-4.78 3.061-15.056 3.736-20.739.272-2.072.429-3.434.429-3.449l.171-1.422h-.055l.116-1.15h-16.008l17.164-13 .05-.57a206.008 206.008 0 00-.004-27.201z" fill="url(#f)" transform="translate(-221.371 -407.25)"/><path d="M125.036 163.4s-15.031 1.447-59.348-10.12c18.082 35.266 35.014 37.187 47.615 37.187h43.006s14.285-7.745 27.839-15.974z" fill="#fff"/><path d="M346.923 682.969c-5.431 0-13.055.045-20.618-4.886-13.155-8.572-17.5-15.334-25.015-29.493 33.784 8.673 49.99 9.636 55.451 9.636.993 0 1.6-.035 1.866-.055l58.35 9.459c-11.955 7.145-26.064 14.492-27.687 15.344h-42.347z" fill="url(#g)" transform="translate(-233.617 -493.736)"/><path d="M96.601 149.625s-7.266-8.421-9.8-14.819l82.2 14.819 21.067-15.954c-.025-13.085-.081-25.6-.081-25.6H86.804S90.45 97.618 97.02 93.463l75.262 14.058 17.759-15.193c-.716-14.29-7.558-23-7.558-23h-79.428c-6.933 0-21.1 1.528-31.777 13.463s-20.179 38.528-9.949 63.307c10.392 25.166 23.88 28.4 31.5 28.4h91.317c.126-.368.3-.711.429-1.14 2.2-7.432 4.079-23.724 4.079-23.724H96.601z" fill="#fff"/><path d="M364.517 495.64s-29.664 5.784-31.111 6.51-7.236 26.77-7.236 26.77h86.158l22.09-18.687z" fill="url(#h)" transform="translate(-245.952 -417.909)"/><path d="M365.642 577.64s-29.664 5.789-31.106 6.515-7.236 26.765-7.236 26.765h82.977l25.363-19.151z" fill="url(#i)" transform="translate(-246.512 -458.562)"/><path d="M413.039 542.195H309.857c2.531 6.4 9.8 14.819 9.8 14.819h92.063s-1.81 18.167-4.16 24.859H318.6c-11.34 0-23.533-3.8-34.2-28.393s-.721-51.371 9.949-63.307 24.839-13.463 31.767-13.463h79.432a47.581 47.581 0 017.478 24.138h-92.953c-6.57 4.16-10.221 14.608-10.221 14.608h103.182a197.009 197.009 0 01.005 26.739z" fill="url(#j)" transform="translate(-222.973 -408.524)"/><path d="M392.457 449.985s-35.891-14.24-68.283 4.079c-28.388 16.06-60.589 41.73-36.673 94.408-21.606-30.829-21.838-55.879-4.871-82.125 16.04-24.808 63.251-47.428 109.827-16.362z" fill="url(#k)" transform="translate(-218.371 -387.789)"/><path d="M330.892 413.77a91.941 91.941 0 00-87.943 117s-.04-.882-.091-2.491c-.292-9.565.943-44.756 18.9-41.69s44.252 8.385 75.363-.192 55.9-37.666 39.925-60.13c.008-.002-18.704-12.497-46.154-12.497z" fill="url(#l)" opacity=".4" transform="translate(-202.968 -377.32)"/><path d="M112.988 68.681c2.229 5.673-5.38 12.465-14.91 14.542s-19.136-1.039-20.82-6.893c-2.672-9.293 6.6-12.6 16.125-14.673s15.128-4.388 19.605 7.024z" fill="#fff"/></g></svg>