<svg xmlns="http://www.w3.org/2000/svg" viewBox="0 0 256 256"><defs><linearGradient id="b" x1=".843" y1=".135" x2=".206" y2=".886" gradientUnits="objectBoundingBox"><stop offset="0" stop-color="#b6509e"/><stop offset="1" stop-color="#2ebac6"/></linearGradient><linearGradient id="c" x1=".854" y1=".146" x2=".146" y2=".854" gradientUnits="objectBoundingBox"><stop offset="0" stop-color="#ff2d55"/><stop offset="1" stop-color="#ffbc5b"/></linearGradient><linearGradient id="d" x1=".5" x2=".5" y2="1" gradientUnits="objectBoundingBox"><stop offset="0" stop-color="#a524b3"/><stop offset="1" stop-color="#ff2d55"/></linearGradient><clipPath id="a"><path d="M0 0h256v256H0z"/></clipPath></defs><g clip-path="url(#a)"><path d="M128 256a128.976 128.976 0 01-25.8-2.6 127.309 127.309 0 01-45.77-19.261 128.366 128.366 0 01-46.375-56.315A127.357 127.357 0 012.6 153.8a129.251 129.251 0 010-51.593 127.31 127.31 0 0119.26-45.77 128.372 128.372 0 0156.317-46.378A127.33 127.33 0 01102.2 2.6a129.244 129.244 0 0151.593 0 127.308 127.308 0 0145.77 19.26 128.367 128.367 0 0146.375 56.316A127.343 127.343 0 01253.4 102.2a129.248 129.248 0 010 51.593 127.3 127.3 0 01-19.26 45.77 128.382 128.382 0 01-56.316 46.375A127.4 127.4 0 01153.8 253.4 128.977 128.977 0 01128 256zm0-242.287a115.145 115.145 0 00-23.033 2.322A113.657 113.657 0 0064.1 33.232a114.622 114.622 0 00-41.4 50.283 113.7 113.7 0 00-6.659 21.452 115.4 115.4 0 000 46.065 113.66 113.66 0 0017.2 40.866 114.627 114.627 0 0050.282 41.407 113.75 113.75 0 0021.453 6.658 115.381 115.381 0 0046.065 0 113.609 113.609 0 0040.866-17.2 114.622 114.622 0 0041.393-50.278 113.741 113.741 0 006.659-21.453 115.4 115.4 0 000-46.065 113.662 113.662 0 00-17.2-40.865A114.619 114.619 0 00172.485 22.7a113.74 113.74 0 00-21.453-6.659A115.145 115.145 0 00128 13.714z" fill="url(#b)"/><g transform="translate(29.714 29.714)"><circle cx="98.285" cy="98.285" r="98.285" fill="url(#c)"/><path d="M125.7 0v73.647h61.373z" transform="translate(-56.128 63.828)" fill-rule="evenodd" fill="url(#d)"/><path d="M8.199 137.475h61.373V63.828z" fill="#fff" fill-rule="evenodd"/><path d="M19.639 157.114a100.569 100.569 0 0019.639 19.639h117.836a100.569 100.569 0 0019.639-19.639z" fill="#fc9965" fill-rule="evenodd"/><path d="M39.278 176.753a98.2 98.2 0 00117.835 0z" fill="#ff2d55" fill-rule="evenodd"/><path d="M252.3 0v54.008h45.023z" transform="translate(-120.57 103.106)" fill-rule="evenodd" fill="url(#d)"/><path d="M131.73 137.475H8.199a97.778 97.778 0 0011.44 19.639h112.14v-19.639z" fill="#ffbc5b" fill-rule="evenodd"/><path d="M86.756 157.114h44.974v-54.008z" fill="#fff" fill-rule="evenodd"/><circle cx="24.549" cy="24.549" r="24.549" transform="translate(107.181 39.278)" fill="#ffc95b"/><circle cx="12.275" cy="12.275" r="12.275" transform="translate(57.298 24.549)" fill="#ffc95b"/></g></g></svg>