<svg xmlns="http://www.w3.org/2000/svg" viewBox="0 0 256 256.001"><linearGradient id="a" gradientUnits="objectBoundingBox" x1=".843" x2=".206" y1=".135" y2=".886"><stop offset="0" stop-color="#b6509e"/><stop offset="1" stop-color="#2ebac6"/></linearGradient><path d="M128 256a128.976 128.976 0 01-25.8-2.6 127.309 127.309 0 01-45.77-19.261 128.366 128.366 0 01-46.375-56.315A127.357 127.357 0 012.6 153.8a129.251 129.251 0 010-51.593 127.31 127.31 0 0119.26-45.77 128.372 128.372 0 0156.317-46.378A127.33 127.33 0 01102.2 2.6a129.244 129.244 0 0151.593 0 127.308 127.308 0 0145.77 19.26 128.367 128.367 0 0146.375 56.316A127.343 127.343 0 01253.4 102.2a129.248 129.248 0 010 51.593 127.3 127.3 0 01-19.26 45.77 128.382 128.382 0 01-56.316 46.375A127.4 127.4 0 01153.8 253.4 128.977 128.977 0 01128 256zm0-242.287a115.145 115.145 0 00-23.033 2.322A113.657 113.657 0 0064.1 33.232a114.622 114.622 0 00-41.4 50.283 113.7 113.7 0 00-6.659 21.452 115.4 115.4 0 000 46.065 113.66 113.66 0 0017.2 40.866 114.627 114.627 0 0050.282 41.407 113.75 113.75 0 0021.453 6.658 115.381 115.381 0 0046.065 0 113.609 113.609 0 0040.866-17.2 114.622 114.622 0 0041.393-50.278 113.741 113.741 0 006.659-21.453 115.4 115.4 0 000-46.065 113.662 113.662 0 00-17.2-40.865A114.619 114.619 0 00172.485 22.7a113.74 113.74 0 00-21.453-6.659A115.145 115.145 0 00128 13.714z" fill="url(#a)"/><circle cx="128" cy="128" fill="#0e3158" r="98"/><g fill="#fff"><path d="M88.354 90.264l9.566-5.5 1.283 2.222 35.249-20.34-2.574-1.481-2.59-1.502-1.283-.741-57.427 33.173v1.481l16.493-9.534zM88.354 111.148l27.624-15.961 1.294 2.243 35.248-20.342-2.577-1.5-2.587-1.481-1.294-.741-75.484 43.582v1.481l16.493-9.535zM88.354 121.591l36.657-21.177 1.294 2.222 35.249-20.366-2.587-1.45-2.577-1.513-1.293-.737-84.519 48.8v1.513l16.493-9.535zM88.354 132.011l45.952-26.526 1.294 2.222 34.988-20.2-2.587-1.5-2.577-1.481-1.293-.741-93.553 54.027v1.481l16.493-9.535zM88.354 142.424l54.986-31.734 1.294 2.253 34.988-20.217-2.587-1.492-2.577-1.5-1.294-.741-102.586 59.241v1.481l16.493-9.513zM183.492 94.968l-1.294-.762-111.62 64.469v1.481l16.493-9.514 1.283 2.222 54.986-31.733 1.294 2.222 40.788-23.537v-3.722zM77.651 166.489l9.253-5.331 1.283 2.222 54.893-31.681 1.294 2.243 41.049-23.7v-7.46L76.389 165.749zM143.08 142.143l1.293 2.243 41.049-23.7v-7.46l-100 57.73 1.283.751 9.389-5.425 1.294 2.243M95.739 176.937l9.389-5.445 1.294 2.243 36.657-21.171 1.294 2.243 41.049-23.7v-7.46l-91 52.524zM104.774 182.149l9.389-5.425 1.294 2.222 27.624-15.94 1.294 2.222 41.049-23.712v-7.427l-81.944 47.319zM112.514 186.613l1.294.741 9.42-5.425 1.262 2.243 18.59-10.755 1.294 2.253 41.049-23.712v-7.448zM122.842 192.59l9.389-5.456 1.294 2.253 9.556-5.55 1.294 2.253 41.049-23.691v-7.447l-63.874 36.9zM143.486 71.864l-2.576-1.482-2.588-1.481-1.283-.772-66.461 38.379v1.481l16.493-9.5 1.283 2.222 18.6-10.734 1.314 2.253z"/></g></svg>