<svg xmlns="http://www.w3.org/2000/svg" viewBox="0 0 256 256"><defs><linearGradient id="b" x1=".843" y1=".135" x2=".206" y2=".886" gradientUnits="objectBoundingBox"><stop offset="0" stop-color="#b6509e"/><stop offset="1" stop-color="#2ebac6"/></linearGradient><clipPath id="a"><path d="M0 0h256v256H0z"/></clipPath></defs><g clip-path="url(#a)"><path d="M128 256a128.976 128.976 0 01-25.8-2.6 127.309 127.309 0 01-45.77-19.261 128.366 128.366 0 01-46.375-56.315A127.357 127.357 0 012.6 153.8a129.251 129.251 0 010-51.593 127.31 127.31 0 0119.26-45.77 128.372 128.372 0 0156.317-46.378A127.33 127.33 0 01102.2 2.6a129.244 129.244 0 0151.593 0 127.308 127.308 0 0145.77 19.26 128.367 128.367 0 0146.375 56.316A127.343 127.343 0 01253.4 102.2a129.248 129.248 0 010 51.593 127.3 127.3 0 01-19.26 45.77 128.382 128.382 0 01-56.316 46.375A127.4 127.4 0 01153.8 253.4 128.977 128.977 0 01128 256zm0-242.287a115.145 115.145 0 00-23.033 2.322A113.657 113.657 0 0064.1 33.232a114.622 114.622 0 00-41.4 50.283 113.7 113.7 0 00-6.659 21.452 115.4 115.4 0 000 46.065 113.66 113.66 0 0017.2 40.866 114.627 114.627 0 0050.282 41.407 113.75 113.75 0 0021.453 6.658 115.381 115.381 0 0046.065 0 113.609 113.609 0 0040.866-17.2 114.622 114.622 0 0041.393-50.278 113.741 113.741 0 006.659-21.453 115.4 115.4 0 000-46.065 113.662 113.662 0 00-17.2-40.865A114.619 114.619 0 00172.485 22.7a113.74 113.74 0 00-21.453-6.659A115.145 115.145 0 00128 13.714z" fill="url(#b)"/><ellipse cx="98.285" cy="97.205" rx="98.285" ry="97.205" transform="translate(29.714 30.629)" fill="#1e1a31"/><g fill-rule="evenodd"><path d="M113.877 121.442a4.835 4.835 0 010 9.669H101.5a21.859 21.859 0 01-21.707-22.007A21.859 21.859 0 01101.5 87.096h31.921a4.8 4.8 0 014.769 4.835 4.8 4.8 0 01-4.769 4.835H101.5a12.339 12.339 0 000 24.677z" fill="#fff"/><path d="M104.105 131.111a4.835 4.835 0 010-9.669h12.378a21.859 21.859 0 0121.707 22.007 21.859 21.859 0 01-21.707 22.008H84.562a4.8 4.8 0 01-4.772-4.835 4.8 4.8 0 014.769-4.835h31.924a12.339 12.339 0 000-24.677z" fill="#fff"/><path d="M88.33 163.507l-7.756-5.632 48.763-68.99 7.752 5.633z" fill="rgba(255,255,255,0.5)"/></g><path d="M145.871 156.181h15.459a8.011 8.011 0 004.874-1.239 4.582 4.582 0 001.639-3.906 4.636 4.636 0 00-1.639-3.922 7.92 7.92 0 00-4.874-1.258h-15.459v-5.633h15.154q5.711 0 8.719 2.76t3.009 8.053q0 5.3-3.008 8.037t-8.72 2.741h-15.154zm17.972-24.749a4.383 4.383 0 003.179-1.6 5.837 5.837 0 001.2-3.849 5.658 5.658 0 00-.857-3.248 2.723 2.723 0 00-2.38-1.258 2.171 2.171 0 00-1.694.695 4.893 4.893 0 00-.99 1.953q-.362 1.258-.895 3.887a20.29 20.29 0 01-1.276 4.356 6.913 6.913 0 01-2.323 2.873 6.869 6.869 0 01-4.093 1.108 7.146 7.146 0 01-4.15-1.258 8.511 8.511 0 01-2.875-3.493 11.765 11.765 0 01-1.046-5.048 12.086 12.086 0 011.085-5.2 9.017 9.017 0 012.989-3.643 7.535 7.535 0 014.3-1.371v5.52a4.047 4.047 0 00-2.76 1.427 4.892 4.892 0 00-1.047 3.267 5.091 5.091 0 00.8 3 2.633 2.633 0 002.285 1.127 2.082 2.082 0 001.656-.676 5.037 5.037 0 00.952-1.915q.362-1.239.857-3.831a22.9 22.9 0 011.237-4.431 6.706 6.706 0 012.246-2.91 6.623 6.623 0 014.019-1.1 7.544 7.544 0 014.36 1.314 8.909 8.909 0 013.027 3.662 12.246 12.246 0 011.1 5.276 13 13 0 01-1.161 5.614 9.332 9.332 0 01-3.217 3.849 8.268 8.268 0 01-4.607 1.427zm-17.972-19v-9.128a14.006 14.006 0 011.694-6.966 11.662 11.662 0 014.721-4.657 14.319 14.319 0 016.911-1.634 14.319 14.319 0 016.911 1.634 11.662 11.662 0 014.721 4.657 14.006 14.006 0 011.694 6.966v9.126zm21.894-9.128a6.844 6.844 0 00-2.342-5.539 9.346 9.346 0 00-6.225-1.972 9.346 9.346 0 00-6.225 1.972 6.844 6.844 0 00-2.342 5.539v3.492h17.134z"/><path d="M145.871 156.181h15.459a8.011 8.011 0 004.874-1.239 4.582 4.582 0 001.639-3.906 4.636 4.636 0 00-1.639-3.922 7.92 7.92 0 00-4.874-1.258h-15.459v-5.633h15.154q5.711 0 8.719 2.76t3.009 8.053q0 5.3-3.008 8.037t-8.72 2.741h-15.154zm17.972-24.749a4.383 4.383 0 003.179-1.6 5.837 5.837 0 001.2-3.849 5.658 5.658 0 00-.857-3.248 2.723 2.723 0 00-2.38-1.258 2.171 2.171 0 00-1.694.695 4.893 4.893 0 00-.99 1.953q-.362 1.258-.895 3.887a20.29 20.29 0 01-1.276 4.356 6.913 6.913 0 01-2.323 2.873 6.869 6.869 0 01-4.093 1.108 7.146 7.146 0 01-4.15-1.258 8.511 8.511 0 01-2.875-3.493 11.765 11.765 0 01-1.046-5.048 12.086 12.086 0 011.085-5.2 9.017 9.017 0 012.989-3.643 7.535 7.535 0 014.3-1.371v5.52a4.047 4.047 0 00-2.76 1.427 4.892 4.892 0 00-1.047 3.267 5.091 5.091 0 00.8 3 2.633 2.633 0 002.285 1.127 2.082 2.082 0 001.656-.676 5.037 5.037 0 00.952-1.915q.362-1.239.857-3.831a22.9 22.9 0 011.237-4.431 6.706 6.706 0 012.246-2.91 6.623 6.623 0 014.019-1.1 7.544 7.544 0 014.36 1.314 8.909 8.909 0 013.027 3.662 12.246 12.246 0 011.1 5.276 13 13 0 01-1.161 5.614 9.332 9.332 0 01-3.217 3.849 8.268 8.268 0 01-4.607 1.427zm-17.972-19v-9.128a14.006 14.006 0 011.694-6.966 11.662 11.662 0 014.721-4.657 14.319 14.319 0 016.911-1.634 14.319 14.319 0 016.911 1.634 11.662 11.662 0 014.721 4.657 14.006 14.006 0 011.694 6.966v9.126zm21.894-9.128a6.844 6.844 0 00-2.342-5.539 9.346 9.346 0 00-6.225-1.972 9.346 9.346 0 00-6.225 1.972 6.844 6.844 0 00-2.342 5.539v3.492h17.134z" fill="#fff"/></g></svg>