<svg xmlns="http://www.w3.org/2000/svg" viewBox="0 0 256 256"><defs><linearGradient id="b" x1=".843" y1=".135" x2=".206" y2=".886" gradientUnits="objectBoundingBox"><stop offset="0" stop-color="#b6509e"/><stop offset="1" stop-color="#2ebac6"/></linearGradient><clipPath id="a"><path d="M0 0h256v256H0z"/></clipPath></defs><g clip-path="url(#a)"><path d="M128 256a128.976 128.976 0 01-25.8-2.6 127.309 127.309 0 01-45.77-19.261 128.366 128.366 0 01-46.375-56.315A127.357 127.357 0 012.6 153.8a129.251 129.251 0 010-51.593 127.31 127.31 0 0119.26-45.77 128.372 128.372 0 0156.317-46.378A127.33 127.33 0 01102.2 2.6a129.244 129.244 0 0151.593 0 127.308 127.308 0 0145.77 19.26 128.367 128.367 0 0146.375 56.316A127.343 127.343 0 01253.4 102.2a129.248 129.248 0 010 51.593 127.3 127.3 0 01-19.26 45.77 128.382 128.382 0 01-56.316 46.375A127.4 127.4 0 01153.8 253.4 128.977 128.977 0 01128 256zm0-242.287a115.145 115.145 0 00-23.033 2.322A113.657 113.657 0 0064.1 33.232a114.622 114.622 0 00-41.4 50.283 113.7 113.7 0 00-6.659 21.452 115.4 115.4 0 000 46.065 113.66 113.66 0 0017.2 40.866 114.627 114.627 0 0050.282 41.407 113.75 113.75 0 0021.453 6.658 115.381 115.381 0 0046.065 0 113.609 113.609 0 0040.866-17.2 114.622 114.622 0 0041.393-50.278 113.741 113.741 0 006.659-21.453 115.4 115.4 0 000-46.065 113.662 113.662 0 00-17.2-40.865A114.619 114.619 0 00172.485 22.7a113.74 113.74 0 00-21.453-6.659A115.145 115.145 0 00128 13.714z" fill="url(#b)"/><path d="M127.999 226.285c-54.057 0-98.285-44.229-98.285-98.286s44.228-98.285 98.285-98.285c54.057 0 98.285 44.228 98.285 98.285.001 54.057-44.228 98.286-98.285 98.286z" fill="#002868"/><path d="M177.535 186.97H78.463a9.463 9.463 0 01-9.435-9.435V78.463a9.463 9.463 0 019.435-9.435h99.072a9.463 9.463 0 019.435 9.435v99.072a9.463 9.463 0 01-9.435 9.435z" fill="#fff"/><g fill="#002868"><path d="M92.042 175.098a.59.59 0 01-.562-.594v-15.847a.59.59 0 00-.562-.594h-5.594a.587.587 0 01-.594-.562v-3.063a.617.617 0 01.594-.594h17.22a.614.614 0 01.594.594v3.067a.59.59 0 01-.594.562H96.98a.614.614 0 00-.594.594v15.844a.59.59 0 01-.562.594zM120.321 154.439a.59.59 0 01.562-.594h3.751a.614.614 0 01.594.594v10.815c0 6.408-3.625 10.127-9.376 10.127-5.72 0-9.314-3.719-9.314-10.127v-10.815a.59.59 0 01.562-.594h3.751a.614.614 0 01.594.594v10.966c0 3.157 1.624 5.406 4.439 5.406s4.439-2.249 4.439-5.406v-10.966zM142.455 160.787a.8.8 0 01-.845-.562 4.282 4.282 0 00-4.281-2.5c-1.97 0-3.625.688-3.625 2 0 1.439 1.533 2.033 4.906 2.437 5.127.594 8.063 2.158 8.063 6.22 0 4.564-4 6.97-9.125 6.97-4.439 0-8.252-2.158-8.846-6.687-.063-.436.157-.594.594-.594h3.44a.774.774 0 01.814.531c.468 1.5 2.064 2.658 4.376 2.658 2.033 0 3.813-.751 3.813-2.343 0-1.907-1.875-2.249-5.626-2.721-4.313-.562-7.312-1.812-7.312-5.783s3.409-6.813 8.751-6.813c4.812 0 8.158 2.595 8.846 6.471.094.436-.031.719-.5.719h-3.444zM150.923 175.098a.59.59 0 01-.562-.594v-20.065a.59.59 0 01.562-.594h8.5c6.314 0 11.22 4.344 11.22 10.69 0 6.251-4.844 10.564-11.22 10.564zm8.5-4.222a6.417 6.417 0 00-.031-12.816h-3.53a.587.587 0 00-.562.594v11.651a.562.562 0 00.562.562h3.562z"/></g><path d="M183.826 142.153H72.174a1.577 1.577 0 01-1.573-1.573V78.464a7.886 7.886 0 017.863-7.863h99.072a7.886 7.886 0 017.863 7.863v62.116a1.577 1.577 0 01-1.573 1.573z" fill="#002868"/><path d="M133.79 129.399h-10.222a1.183 1.183 0 01-1.179-1.179V84.974a1.183 1.183 0 011.179-1.179h10.222a1.183 1.183 0 011.179 1.179v43.246a1.183 1.183 0 01-1.179 1.179z" fill="#fff"/><path d="M151.195 96.376h-46.391a1.183 1.183 0 01-1.179-1.18V84.974a1.183 1.183 0 011.179-1.179h46.391a1.183 1.183 0 011.179 1.179v10.222a1.183 1.183 0 01-1.179 1.18z" fill="#fff"/></g></svg>