<svg xmlns="http://www.w3.org/2000/svg" viewBox="0 0 256 256"><defs><linearGradient id="b" x1=".843" y1=".135" x2=".206" y2=".886" gradientUnits="objectBoundingBox"><stop offset="0" stop-color="#b6509e"/><stop offset="1" stop-color="#2ebac6"/></linearGradient><clipPath id="a"><path d="M0 0h256v256H0z"/></clipPath></defs><g clip-path="url(#a)"><path d="M128 256a128.976 128.976 0 01-25.8-2.6 127.309 127.309 0 01-45.77-19.261 128.366 128.366 0 01-46.375-56.315A127.357 127.357 0 012.6 153.8a129.251 129.251 0 010-51.593 127.31 127.31 0 0119.26-45.77 128.372 128.372 0 0156.317-46.378A127.33 127.33 0 01102.2 2.6a129.244 129.244 0 0151.593 0 127.308 127.308 0 0145.77 19.26 128.367 128.367 0 0146.375 56.316A127.343 127.343 0 01253.4 102.2a129.248 129.248 0 010 51.593 127.3 127.3 0 01-19.26 45.77 128.382 128.382 0 01-56.316 46.375A127.4 127.4 0 01153.8 253.4 128.977 128.977 0 01128 256zm0-242.287a115.145 115.145 0 00-23.033 2.322A113.657 113.657 0 0064.1 33.232a114.622 114.622 0 00-41.4 50.283 113.7 113.7 0 00-6.659 21.452 115.4 115.4 0 000 46.065 113.66 113.66 0 0017.2 40.866 114.627 114.627 0 0050.282 41.407 113.75 113.75 0 0021.453 6.658 115.381 115.381 0 0046.065 0 113.609 113.609 0 0040.866-17.2 114.622 114.622 0 0041.393-50.278 113.741 113.741 0 006.659-21.453 115.4 115.4 0 000-46.065 113.662 113.662 0 00-17.2-40.865A114.619 114.619 0 00172.485 22.7a113.74 113.74 0 00-21.453-6.659A115.145 115.145 0 00128 13.714z" fill="url(#b)"/><path d="M128.391 29.716c-54.493-.218-98.835 44.148-98.676 98.325s44.27 98.254 98.325 98.245c53.569-.01 97.87-44.089 98.293-97.006.431-53.897-42.569-99.343-97.942-99.564zm-.816 188.654c-49.5-.2-89.939-40.747-89.938-90.479 0-50.064 40.591-90.326 91.093-90.262 49.028.062 90.4 40.777 89.684 91.677-.694 49.399-41.439 89.264-90.839 89.064z" fill="#282138"/><path d="M127.766 212.255a84.059 84.059 0 01-55.035-20.714c-1.41-1.205-1.637-1.887-.179-3.287 3.911-3.757 3.84-3.832 8.051-.448 28.4 22.817 69.48 21.972 97.31-2.067 1.321-1.141 1.973-1.155 3.19.087 4.169 4.259 4.225 4.213-.588 8.012-15.399 12.155-32.928 18.222-52.749 18.417z" fill="#82808a"/><path d="M204.396 125.326c-.08-16.388-6.434-32.9-18.562-47.222-1.137-1.342-1.173-1.971.073-3.192 4.194-4.111 4.2-4.211 7.862.4a82.336 82.336 0 0118.143 45.393c1.908 23.67-5.023 44.462-20.324 62.557-1.208 1.429-1.875 1.642-3.276.189-3.744-3.885-3.773-3.779-.451-8.039 10.911-13.993 16.559-29.829 16.535-50.086zM127.629 43.692a84.373 84.373 0 0155.563 20.546c1.587 1.339 1.807 2.12.168 3.651-3.773 3.526-3.655 3.579-7.68.411a74.916 74.916 0 00-43.532-16.565c-20.454-1.018-38.408 5.247-53.972 18.445-1.327 1.125-1.99 1.162-3.21-.081-4.16-4.237-4.213-4.191.41-7.869a83.369 83.369 0 0152.253-18.538zM43.765 127.52c.192-20.409 7.042-38.732 20.476-54.65 1.468-1.739 2.282-1.757 3.826-.1 3.38 3.632 3.474 3.543.446 7.35a74.928 74.928 0 00-16.87 49.532 74.241 74.241 0 0018.263 47.743c1.378 1.619 1.579 2.485-.091 4.043-3.937 3.674-3.846 3.776-7.19-.4-12.433-15.511-18.712-33.211-18.86-53.518z" fill="#83808a"/><path d="M167.42 138.983c-.774-6.15-4.489-9.992-10.2-12.1-.838-.31-1.863-.281-2.557-1.207 6.809-3.867 8.424-10.053 7.284-17.177-1.1-6.859-5.746-10.609-12.073-12.635a35.785 35.785 0 00-8.9-1.831c-1.351-.076-1.967-.558-1.9-2 .1-2.108.025-4.224.025-6.337 0-7.91 0-7.874-7.919-7.474-1.343.068-1.742.5-1.709 1.785.069 2.7.02 5.409.02 8.113 0 5.4 0 5.333-5.34 5.4-1.668.022-2.2-.479-2.15-2.144.107-3.8-.013-7.606.058-11.407.024-1.328-.413-1.794-1.741-1.736-2.024.089-4.059.1-6.083 0-1.423-.073-1.91.384-1.876 1.845.09 3.885-.047 7.776.065 11.661.048 1.655-.434 2.2-2.12 2.163-4.392-.105-8.788-.064-13.183-.027-4.529.038-3.924-.627-3.948 3.83-.035 6.357-.01 6.358 6.437 6.411 4.321.036 6.007 1.692 6.014 5.955q.016 10.775 0 21.55c0 5.831.01 11.663 0 17.494-.009 3.839-1 4.848-4.741 4.883a36.777 36.777 0 01-3.8-.022 1.877 1.877 0 00-2.372 1.886c-.35 2.592-.719 5.186-1.226 7.75-.289 1.461.072 1.914 1.584 1.878 3.8-.091 7.606-.056 11.408-.022 5.856.052 5.856.069 5.856 5.8 0 .929-.049 1.862.01 2.788.148 2.335-1.029 5.373.477 6.818 1.489 1.429 4.513.243 6.848.461 1.725.161 2.385-.39 2.318-2.221-.134-3.629.068-7.271-.083-10.9-.081-1.937.572-2.423 2.438-2.4 5.151.054 5.152-.029 5.152 5.24 0 .93-.055 1.863.011 2.788.171 2.412-1.084 5.565.529 7.042 1.575 1.442 4.688.241 7.112.453 1.608.141 2.02-.537 1.985-2.038-.084-3.632.085-7.272-.07-10.9-.089-2.088.36-2.966 2.7-3.03a44.771 44.771 0 0010.952-1.849c12.122-3.437 16.17-12.881 14.708-24.537zm-45.25-24.915v-7.586c0-.86-.043-1.735 1.224-1.76 4.97-.1 9.949-.313 14.739 1.437 4.053 1.482 6.164 4.209 6.18 8 .016 3.724-2.12 6.428-6.256 7.918-4.692 1.691-9.583 1.646-14.468 1.678-1.353.009-1.432-.843-1.427-1.851.014-2.607.004-5.221.004-7.832zm22.845 36.51c-3 2.125-6.522 2.791-10.041 3.162-3.6.38-7.246.311-10.866.527-1.515.091-2.109-.363-2.043-1.969.118-2.868.034-5.744.034-8.616h.073c0-2.872.03-5.744-.014-8.615-.019-1.218.3-1.86 1.69-1.876 5.492-.064 10.971-.077 16.343 1.314a14.276 14.276 0 014.829 2.131 8.368 8.368 0 01-.009 13.947z" fill="#ef9142"/></g></svg>