<svg xmlns="http://www.w3.org/2000/svg" viewBox="0 0 256 256"><defs><linearGradient id="b" x1=".843" y1=".135" x2=".206" y2=".886" gradientUnits="objectBoundingBox"><stop offset="0" stop-color="#b6509e"/><stop offset="1" stop-color="#2ebac6"/></linearGradient><clipPath id="a"><path d="M0 0h256v256H0z"/></clipPath></defs><g clip-path="url(#a)"><path d="M128 256a128.976 128.976 0 01-25.8-2.6 127.309 127.309 0 01-45.77-19.261 128.366 128.366 0 01-46.375-56.315A127.357 127.357 0 012.6 153.8a129.251 129.251 0 010-51.593 127.31 127.31 0 0119.26-45.77 128.372 128.372 0 0156.317-46.378A127.33 127.33 0 01102.2 2.6a129.244 129.244 0 0151.593 0 127.308 127.308 0 0145.77 19.26 128.367 128.367 0 0146.375 56.316A127.343 127.343 0 01253.4 102.2a129.248 129.248 0 010 51.593 127.3 127.3 0 01-19.26 45.77 128.382 128.382 0 01-56.316 46.375A127.4 127.4 0 01153.8 253.4 128.977 128.977 0 01128 256zm0-242.287a115.145 115.145 0 00-23.033 2.322A113.657 113.657 0 0064.1 33.232a114.622 114.622 0 00-41.4 50.283 113.7 113.7 0 00-6.659 21.452 115.4 115.4 0 000 46.065 113.66 113.66 0 0017.2 40.866 114.627 114.627 0 0050.282 41.407 113.75 113.75 0 0021.453 6.658 115.381 115.381 0 0046.065 0 113.609 113.609 0 0040.866-17.2 114.622 114.622 0 0041.393-50.278 113.741 113.741 0 006.659-21.453 115.4 115.4 0 000-46.065 113.662 113.662 0 00-17.2-40.865A114.619 114.619 0 00172.485 22.7a113.74 113.74 0 00-21.453-6.659A115.145 115.145 0 00128 13.714z" fill="url(#b)"/><path d="M181.623 162.197c7.1 9.547 14.432 19.316 21.759 29.086-14.654 17.318-32.86 28.42-54.841 33.082-24.423 5.107-47.514 1.332-69.939-11.1 19.982-14.881 39.521-29.531 59.281-44.181 4.441 4.219 8.659 8.437 12.878 12.434 4.663 4.441 2.886 4.663 8.881 1.332a61.572 61.572 0 0020.427-18.872c.222-.444.666-.888.888-1.332-.222 0 0 0 .666-.444zm-87.257 19.539c-5.551 4.219-10.657 7.993-15.764 11.99-3.774 2.886-7.549 5.551-11.323 8.437-1.554 1.332-2.664 1.332-4.441-.222-16.874-15.1-27.531-33.748-31.528-55.951-4-22.425-.444-43.739 10.213-63.944.222-.444.666-1.11.888-1.554 0-.222.222-.222.666-.444 14.656 19.316 29.53 38.636 44.184 57.948a9.4 9.4 0 01-1.11 1.554c-4.441 4.663-8.881 9.325-13.544 13.766-1.332 1.332-1.554 2.442-.666 4a65.688 65.688 0 0019.094 22.2c1.11.668 1.998 1.332 3.331 2.22zm82.816-137.879c-7.1 5.107-14.21 10.213-21.315 15.1-12.212 8.659-24.423 17.54-36.413 26.2-1.554 1.11-2.664 1.332-4-.222-4-4.219-8.215-7.993-12.212-12.212a3.022 3.022 0 00-3.774-.666 64.564 64.564 0 00-23.309 20.427 12.314 12.314 0 00-1.332 1.776c-3.552-4.663-6.883-8.881-10.213-13.322-3.552-4.663-6.883-9.325-10.213-13.766-1.11-1.554-1.332-2.664.222-4.219 17.1-18.872 38.189-29.974 63.5-32.638 19.982-2.22 39.077 1.776 56.839 11.323.666.444 1.332.666 2 1.11-.002.665-.002.887.22 1.109zm36.191 133.216c-4.663-5.995-8.881-11.545-13.1-17.1-9.769-12.878-19.538-25.977-29.53-38.855-1.332-1.776-1.332-2.886.222-4.441 4.219-4.219 8.215-8.437 12.434-12.656 1.11-1.11 1.554-2.22.666-3.774a65.816 65.816 0 00-20.2-23.313 19.2 19.2 0 00-2.22-1.554c.666-.666 1.332-1.11 1.776-1.554 8.437-6.439 16.874-12.656 25.311-19.094 1.332-1.11 2.442-1.554 4 0 21.093 19.094 32.416 42.851 33.526 71.493a97.405 97.405 0 01-10.879 47.292 16.826 16.826 0 00-2.006 3.556z" fill="#231815"/></g></svg>