<svg fill="none" xmlns="http://www.w3.org/2000/svg" viewBox="0 0 20 20"><path d="M9.923 19.36a9.208 9.208 0 100-18.415 9.208 9.208 0 000 18.416z" fill="#070A0E"/><path d="M9.916 18.672a8.521 8.521 0 100-17.043 8.521 8.521 0 000 17.043z" fill="#070A0E"/><path fill-rule="evenodd" clip-rule="evenodd" d="M6.034 13.24a.928.928 0 01-.444-.79v-1.799a.386.386 0 01.582-.333l4.06 2.367a.773.773 0 01.383.667v1.864a.464.464 0 01-.706.396l-3.875-2.371zm6.051-3.415a.773.773 0 01.384.668v3.782c0 .111-.06.215-.157.269l-.89.5a.18.18 0 01-.035.015v-2.1a.774.774 0 00-.376-.664l-3.566-2.133v-2.37a.386.386 0 01.582-.333l4.058 2.366zm1.777-2.794a.772.772 0 01.385.67v5.524a.31.31 0 01-.162.271l-.843.455v-3.846a.774.774 0 00-.375-.662L9.223 7.256V5.008a.387.387 0 01.58-.334l4.06 2.357z" fill="#00D395"/></svg>