<svg xmlns="http://www.w3.org/2000/svg" shape-rendering="geometricPrecision" text-rendering="geometricPrecision" image-rendering="optimizeQuality" fill-rule="evenodd" clip-rule="evenodd" viewBox="0 0 1282.27 801.91"><path fill="#fff" fill-rule="nonzero" d="M0 0h1282.27v801.47L0 801.48z"/><path fill="#F7931A" fill-rule="nonzero" d="M0 0h366.24C302.45 45.13 250.81 105.01 214.8 174.88c-36.02 69.86-54.68 147.1-54.68 225.64 0 78.54 18.66 156.22 54.68 226.08 36.02 69.87 87.65 129.75 151.44 174.87H0V-.01zm640.92 0C536.34 0 436.1 42.09 361.9 117.16c-73.77 75.07-115.43 177.05-115.43 283.36s41.66 208.29 115.43 283.36c73.77 75.07 174.44 117.16 279.02 117.16 104.57 0 204.81-42.09 279.02-117.16 73.77-75.07 115.43-177.04 115.43-283.36 0-106.31-41.66-208.29-115.43-283.36C846.17 42.09 745.5 0 640.92 0zm641.35 0H916.03c63.79 45.13 115.43 105.01 151.44 174.88 36.02 69.86 54.67 147.1 54.67 226.08 0 78.54-18.66 156.21-54.67 226.08-36.02 69.86-87.65 129.74-151.44 174.87h366.24V0z"/><path fill="#fff" fill-rule="nonzero" d="M815.33 283.26c-17.79-50.77-66.39-56.85-123.24-47.73l-17.79-72.04-43.39 10.85 17.36 70.3c-11.28 3.04-23 6.07-34.28 9.11l-17.36-70.73-43.39 10.85 17.79 72.03c-9.11 2.6-18.66 5.21-27.34 7.38v-.43l-59.88 15.19 11.72 46.87s31.68-8.68 31.24-7.81c17.35-4.34 25.6 4.34 29.51 13.02l20.39 82.45c1.74-.43 3.04-.87 4.77-.87l-4.77 1.3 28.2 115.43c.43 5.64-.43 15.62-12.58 18.66.87.43-31.68 7.81-31.68 7.81l4.34 54.67 56.41-14.32c10.42-2.6 20.83-5.2 30.81-7.38l17.79 72.9 43.39-10.85-17.79-72.47c12.15-2.6 23.43-5.64 34.71-8.24l17.79 72.03 43.39-10.85-17.79-72.9c71.6-22.56 118.03-54.24 107.18-125.41-8.68-57.28-40.79-75.5-84.62-75.07 22.13-19.53 32.11-46.43 19.09-83.75zm-22.13 171.4c13.45 54.68-80.28 71.6-109.35 78.98l-23.87-96.77c29.51-6.94 119.33-38.62 133.22 17.79zm-53.37-131.05c12.15 49.47-65.96 63.35-90.26 69.43l-21.7-87.65c24.3-6.51 98.93-33.85 111.95 18.22z"/></svg>