<svg xmlns="http://www.w3.org/2000/svg" viewBox="0 0 1871.3 2503"><path d="M948.2 0C425.4 2.1 2.1 425.4 0 948.2c0 104.7 16.9 208.7 50 308 24.7 67.6 98 104 166.8 83.1 66.5-25.5 101.8-98.2 80.6-166.2-28.1-77.4-40.6-159.5-36.9-241.7 11.4-377.6 326.7-674.5 704.3-663.1s674.5 326.7 663.1 704.3c-10.7 353.5-289.1 640.6-642.2 662.1 0 0-133.1 8.1-199.3 16.2-24.4 3.5-48.6 8.3-72.5 14.4-3.4 3.5-8.9 3.5-12.4.1l-.1-.1c-2.4-3.1-2.4-7.5 0-10.6l20.6-112.4 125-562.2c15-70.2-29.7-139.3-99.9-154.3s-139.3 29.7-154.3 99.9c0 0-297.3 1376.1-297.3 1388.6-17 66.9 23.4 134.9 90.3 151.9.7.2 1.5.4 2.2.5h6.9c66.8 17.3 135-22.9 152.2-89.7.3-1.1.6-2.2.8-3.4-.2-2.1-.2-4.2 0-6.2 3.7-16.2 41.2-199.3 41.2-199.3 28.4-138.2 139.8-244.1 279.2-265.5 28.7-4.4 149.3-12.5 149.3-12.5 520.8-51.9 900.9-516.2 848.9-1037-47.4-475-440.9-840.7-918.3-853.1z" fill="#1e1e1e"/><path d="M1005.7 2186.3c-85.5-17.8-169.1 37.1-186.9 122.5-.2.8-.3 1.6-.5 2.4-18.5 84.9 35.3 168.8 120.3 187.3.1 0 .2 0 .3.1h4.4c83.2 20.1 166.9-31.1 186.9-114.2.2-.6.3-1.3.5-1.9v-8.7c14.7-85.8-40.1-168.1-125-187.5z" fill="#e6007a"/></svg>