<svg xmlns="http://www.w3.org/2000/svg" width="288" height="288" viewBox="0 0 288 288">
  <g fill="none" fill-rule="evenodd" transform="translate(1 1)">
    <circle cx="143" cy="143" r="143" fill="#FF007A" stroke="#979797"/>
    <circle cx="141" cy="141" r="135" fill="#FF3395"/>
    <circle cx="138.5" cy="138.5" r="132.5" fill="#FF4CA1"/>
    <g fill="#FFF" transform="translate(64 48)">
      <path fill-rule="nonzero" d="M50.9384738,23.6376877 C48.6952363,23.3192566 48.5884155,23.2131129 49.6566238,23.1069692 C51.6862197,22.788538 56.3863364,23.2131129 59.6977823,23.9561189 C67.3888824,25.760562 74.3322366,30.4308854 81.7028742,38.6039514 L83.6256492,40.8329694 L86.4029909,40.4083946 C98.2601036,38.4978077 110.437679,39.9838197 120.585658,44.6541432 C123.363,45.9278677 127.742654,48.4753169 128.276758,49.1121792 C128.4904,49.3244666 128.810862,50.7043349 129.024504,52.0842032 C129.77225,57.0729577 129.451787,60.7879877 127.849475,63.653868 C126.994908,65.2460237 126.994908,65.6705986 127.529012,67.0504669 C127.956296,68.111904 129.238146,68.85491 130.413175,68.85491 C132.976875,68.85491 135.647396,64.8214489 136.929246,59.195832 L137.46335,56.966814 L138.424737,58.0282512 C143.8726,64.0784429 148.145433,72.4637963 148.786358,78.4078443 L149,80 L148.038612,78.6201317 C146.4363,76.1788263 144.940808,74.5866706 142.911212,73.2068023 C139.279304,70.7654969 135.433754,70.0224909 125.285775,69.4917723 C116.099183,68.9610537 110.864962,68.2180477 105.737562,66.5197483 C96.9782535,63.653868 92.4917785,59.938838 82.1301575,46.2462989 C77.5368616,40.1961072 74.6526991,36.905652 71.7685366,34.1459154 C65.4661073,28.0957237 59.1636781,24.9114123 50.9384738,23.6376877 Z"/>
      <path fill-rule="nonzero" d="M130.585211 36.8215253C130.801195 32.8291179 131.341155 30.2025341 132.529068 27.786077 132.961036 26.8405068 133.393004 26 133.500996 26 133.608988 26 133.393004 26.7354435 133.069028 27.5759503 132.205092 29.8873441 132.0971 33.144308 132.63706 36.8215253 133.393004 41.5493762 133.71698 42.1797563 138.900598 47.3278606 141.276422 49.7443177 144.084215 52.791155 145.164135 54.0519152L147 56.363309 145.164135 54.6822953C142.896303 52.5810283 137.712685 48.5886209 136.524773 48.0633041 135.768829 47.6430507 135.660837 47.6430507 135.120876 48.1683674 134.688908 48.5886209 134.580916 49.219001 134.580916 52.2658382 134.472924 56.9936891 133.824972 59.935463 132.205092 62.9823002 131.341155 64.5582505 131.233163 64.2430604 131.989108 62.4569834 132.529068 61.0911598 132.63706 60.4607797 132.63706 55.9430555 132.63706 46.8025439 131.557139 44.5962134 124.969625 40.9189961 123.349745 39.9734259 120.541952 38.6076023 118.922072 37.8721589 117.194199 37.1367154 115.898295 36.5063353 116.006287 36.5063353 116.222271 36.2962086 122.593801 38.0822856 125.077617 39.1329191 128.857339 40.603806 129.505291 40.7088694 129.937259 40.603806 130.261235 40.288616 130.477219 39.4481092 130.585211 36.8215253zM55.9293169 53.0513554C51.3700012 46.8946664 48.4390126 37.3411834 49.0903434 30.229146L49.3074536 28 50.393005 28.2122996C52.3469974 28.5307491 55.7122066 29.8045468 57.3405336 30.7598951 61.682739 33.3074905 63.6367315 36.8104343 65.4821688 45.5147188 66.0249444 48.0623143 66.7848304 51.034509 67.1104958 51.9898573 67.6532715 53.5821044 69.715819 57.2973478 71.4527012 59.6326437 72.6468077 61.3310406 71.8869217 62.1802391 69.1730434 61.9679395 65.0479482 61.5433403 59.5116363 57.8280969 55.9293169 53.0513554zM124.708946 99.4081633C103.498605 90.9480519 96 83.6512059 96 71.2782931 96 69.4805195 96.1071229 68 96.1071229 68 96.2142459 68 96.9641064 68.6345083 97.9282128 69.3747681 102.21313 72.7588126 107.033662 74.2393321 120.424028 76.1428571 128.244002 77.3061224 132.743165 78.1521336 136.813837 79.5269017 149.775711 83.7569573 157.809931 92.4285714 159.738144 104.166976 160.273759 107.55102 159.95239 114.001855 159.095406 117.3859 158.345546 120.029685 156.203087 124.894249 155.667473 125 155.56035 125 155.346104 124.471243 155.346104 123.625232 155.131858 119.183673 152.882276 114.953618 149.132974 111.675325 144.633811 107.868275 138.849172 105.012987 124.708946 99.4081633zM110.470142 103.038378C110.256211 101.449331 109.721384 99.4365384 109.400487 98.5890468L108.86566 97 109.828349 98.165301C111.218899 99.7543478 112.288553 101.661204 113.251242 104.309615 114 106.322408 114 106.958027 114 110.242057 114 113.42015 113.893035 114.161706 113.251242 115.962625 112.181588 118.822909 110.898003 120.835702 108.758695 123.060368 104.90794 126.980016 99.8805662 129.098745 92.7138839 130.052174 91.4302991 130.15811 87.7934752 130.475919 84.584513 130.687792 76.5621074 131.111538 71.2138371 131.95903 66.4003937 133.654013 65.7586013 133.865886 65.1168089 134.077759 65.0098434 133.971822 64.7959126 133.759949 68.1118403 131.853093 70.7859754 130.581856 74.5297647 128.780936 78.3805194 127.827508 86.8307865 126.344398 91.0024374 125.708779 95.2810537 124.861287 96.3507078 124.437542 106.940283 121.153511 112.181588 112.996405 110.470142 103.038378z"/>
      <path fill-rule="nonzero" d="M119.735881 120.221509C116.929849 114.182986 116.282303 108.462279 117.793244 103.05939 118.009092 102.529695 118.224941 102 118.440789 102 118.656638 102 119.304184 102.317817 119.95173 102.741573 121.246821 103.589085 123.944929 105.072231 130.852085 108.780096 139.593954 113.441413 144.558472 117.043339 148.012049 121.17496 151.03393 124.776886 152.868643 128.908507 153.732038 133.993579 154.271659 136.853933 153.947886 143.739968 153.192416 146.600321 150.818081 155.605136 145.421866 162.808989 137.543392 166.94061 136.356224 167.576244 135.384906 168 135.276981 168 135.169057 168 135.600754 166.94061 136.2483 165.669342 138.838483 160.266453 139.162256 155.075441 137.219619 149.248796 136.032451 145.64687 133.550192 141.303371 128.585674 133.993579 122.649837 125.518459 121.246821 123.29374 119.735881 120.221509zM40.2343144 152.232245C48.1076129 145.585552 57.7896421 140.868544 66.7268999 139.367678 70.5571532 138.72445 76.9409087 138.938859 80.4519743 139.903702 86.0909583 141.404568 91.1979627 144.620709 93.8578609 148.587284 96.4113631 152.446654 97.5817183 155.77 98.7520734 163.167126 99.1776571 166.061654 99.7096368 169.063386 99.8160327 169.706614 100.6672 173.565984 102.369535 176.567717 104.497453 178.175787 107.795727 180.641496 113.541107 180.748701 119.180091 178.604606 120.137654 178.282992 120.988822 177.961378 120.988822 178.068583 121.201614 178.282992 118.328924 180.212677 116.413797 181.17752 113.753899 182.571181 111.62598 183 108.75329 183 103.646286 183 99.2840531 180.319882 95.7729875 174.959646 95.0282161 173.887599 93.5386731 170.778662 92.261922 167.884134 88.5380646 159.200552 86.6229379 156.627638 82.260705 153.733111 78.4304517 151.267402 73.5362391 150.731379 69.8123817 152.553859 64.9181691 154.912363 63.641418 161.237441 67.0460877 165.096811 68.4292347 166.704882 70.9827369 167.991339 73.1106554 168.312953 77.0473046 168.848977 80.4519743 165.74004 80.4519743 161.773465 80.4519743 159.200552 79.4944109 157.699685 76.9409087 156.520434 73.5362391 155.019567 69.8123817 156.734843 69.9187776 160.058189 69.9187776 161.451851 70.5571532 162.309489 71.9403002 162.952717 72.7914676 163.381536 72.7914676 163.381536 72.1530921 163.274331 69.0676102 162.631103 68.3228388 158.771733 70.769945 156.306024 73.749031 153.304292 80.0263906 154.590749 82.1543091 158.771733 83.0054765 160.487008 83.1118724 163.917559 82.3671009 166.061654 80.5583702 170.778662 75.4513658 173.24437 70.2379654 171.850709 66.7268999 170.885866 65.2373569 169.921024 60.9815199 165.52563 53.5338051 157.80689 50.6611151 156.306024 40.0215226 154.697953L38 154.376339 40.2343144 152.232245z"/>
      <path d="M3.63365873 4.58316361C28.5023738 34.7467753 47.6075239 58.1955193 49.5287122 60.7535642 51.1297025 62.8852682 50.4893064 64.910387 47.8209893 66.4025798 46.3267317 67.2552614 43.231484 68.107943 41.7372264 68.107943 40.0295035 68.107943 38.0015825 67.2552614 36.6140576 65.8696538 35.6534635 64.910387 36.827523 68.4276986 27.4350469 53.8255261 20.2839572 42.6340801 14.2001943 33.3611677 14.0934616 33.2545825 13.6665309 33.0414121 13.6665309 33.0414121 26.6879182 56.2769857 34.9063347 70.8791582 32.2380176 66.509165 32.2380176 67.1486762 32.2380176 68.5342838 31.8110869 69.2803802 30.103364 71.1989138 27.2215816 74.3964698 25.9407894 78.0203666 24.9801952 85.5879158 23.9128684 94.0081466 21.031086 99.9769179 12.8126694 110.102512 8.00969871 116.071283 7.26256993 117.137135 6.08851043 119.588595 4.59425287 122.57298 4.16732214 124.278344 3.95385677 128.115411 3.74039141 132.165648 4.16732214 134.723693 5.34138165 138.56076 6.40870847 141.971487 7.58276798 144.209776 10.4645504 148.579769 12.9194021 152.416836 14.4136597 155.294637 14.4136597 156.360489 14.4136597 157.21317 14.627125 157.21317 18.4695016 156.360489 27.6485123 154.228785 35.2265328 150.604888 39.3891074 146.12831 41.9506918 143.357094 42.5910879 141.864902 42.5910879 138.027834 42.5910879 135.576375 42.4843552 135.043449 41.8439591 133.551256 40.7766323 131.206382 38.7487113 129.287848 34.3726713 126.303462 28.6091064 122.35981 26.1542547 119.162254 25.5138586 114.898846 24.9801952 111.274949 25.6205913 108.823489 28.8225718 102.108622 32.131285 95.1805838 32.9851464 92.3027834 33.5188098 85.2681602 33.8390079 80.7915818 34.3726713 78.9796334 35.6534635 77.5940258 37.0409884 76.101833 38.2150479 75.568907 41.523761 75.1425662 46.9671278 74.3964698 50.4893064 73.0108622 53.2643561 70.3462322 55.7192078 68.107943 56.7865346 65.8696538 56.8932673 62.5655126L57 60.114053 55.6124751 58.6218601C50.596039 52.8662593.324945568 0 .00474752062 0-.101985162 0 1.60573776 2.02511881 3.63365873 4.58316361zM17.1887094 132.698574C18.3627689 130.673456 17.7223728 128.115411 15.8011845 126.836388 13.9867289 125.663951 11.2116792 126.196877 11.2116792 127.795655 11.2116792 128.221996 11.4251446 128.648337 12.0655406 128.861507 13.0261348 129.394433 13.1328675 129.927359 12.3857387 131.099796 11.6386099 132.272234 11.6386099 133.338086 12.5992041 134.084182 14.0934616 135.256619 16.1213826 134.617108 17.1887094 132.698574zM60.8168074 76.256453C58.3256103 76.990841 55.9382131 79.7185679 55.2116139 82.4462948 54.7964144 84.1248959 55.0040141 87.1673605 55.7306133 88.1115737 56.872412 89.5803497 57.9104108 90 60.8168074 90 66.5258007 90 71.404395 87.4820983 71.9233944 84.4396336 72.4423938 81.9217319 70.2625963 78.459617 67.2523999 76.8859284 65.6954017 76.0466278 62.4776054 75.7318901 60.8168074 76.256453zM67.4599996 81.5020816C68.2903986 80.2431307 67.978999 78.8792673 66.4220008 77.9350541 63.6194041 76.1515404 59.3636091 77.6203164 59.3636091 80.3480433 59.3636091 81.7119067 61.5434065 83.1806828 63.6194041 83.1806828 64.9688025 83.1806828 66.8372003 82.3413822 67.4599996 81.5020816z"/>
    </g>
  </g>
</svg>
